<svg width="70" height="70" viewBox="0 0 70 70" fill="none" xmlns="http://www.w3.org/2000/svg">
<path d="M24.5 17.5V24.5H38.5V31.5H31.5C29.6435 31.5 27.863 32.2375 26.5503 33.5503C25.2375 34.863 24.5 36.6435 24.5 38.5V52.5H45.5V45.5H31.5V38.5H38.5C40.3565 38.5 42.137 37.7625 43.4497 36.4497C44.7625 35.137 45.5 33.3565 45.5 31.5V24.5C45.5 22.6435 44.7625 20.863 43.4497 19.5503C42.137 18.2375 40.3565 17.5 38.5 17.5H24.5ZM35 0C39.5963 0 44.1475 0.905302 48.3939 2.66422C52.6403 4.42313 56.4987 7.00121 59.7487 10.2513C62.9988 13.5013 65.5769 17.3597 67.3358 21.6061C69.0947 25.8525 70 30.4037 70 35C70 44.2826 66.3125 53.185 59.7487 59.7487C53.185 66.3125 44.2826 70 35 70C30.4037 70 25.8525 69.0947 21.6061 67.3358C17.3597 65.5769 13.5013 62.9988 10.2513 59.7487C3.68749 53.185 0 44.2826 0 35C0 25.7174 3.68749 16.815 10.2513 10.2513C16.815 3.68749 25.7174 0 35 0Z" fill="#C7E1E0"/>
</svg>
