<svg width="67" height="67" viewBox="0 0 67 67" fill="none" xmlns="http://www.w3.org/2000/svg">
<path d="M43.3333 43.3333V38.3333C43.3333 37.0073 42.8065 35.7355 41.8689 34.7978C40.9312 33.8601 39.6594 33.3333 38.3333 33.3333C39.6594 33.3333 40.9312 32.8065 41.8689 31.8689C42.8065 30.9312 43.3333 29.6594 43.3333 28.3333V23.3333C43.3333 21.5652 42.631 19.8695 41.3807 18.6193C40.1305 17.369 38.4348 16.6667 36.6667 16.6667H23.3333V23.3333H36.6667V30H30V36.6667H36.6667V43.3333H23.3333V50H36.6667C38.4348 50 40.1305 49.2976 41.3807 48.0474C42.631 46.7971 43.3333 45.1014 43.3333 43.3333ZM33.3333 0C37.7107 0 42.0453 0.862192 46.0894 2.53735C50.1336 4.21251 53.8083 6.66782 56.9036 9.76311C59.9988 12.8584 62.4542 16.533 64.1293 20.5772C65.8045 24.6214 66.6667 28.9559 66.6667 33.3333C66.6667 42.1739 63.1548 50.6523 56.9036 56.9036C50.6523 63.1548 42.1739 66.6667 33.3333 66.6667C28.9559 66.6667 24.6214 65.8045 20.5772 64.1293C16.533 62.4542 12.8584 59.9988 9.76311 56.9036C3.51189 50.6523 0 42.1739 0 33.3333C0 24.4928 3.51189 16.0143 9.76311 9.76311C16.0143 3.51189 24.4928 0 33.3333 0Z" fill="#C7E1E0"/>
</svg>
