<svg width="341" height="189" viewBox="0 0 341 189" fill="none" xmlns="http://www.w3.org/2000/svg">
<path d="M2.21436 185.206H252.352C299.737 185.206 338.15 150.407 338.15 89.3537C338.15 28.3002 299.737 2.85291 252.352 2.85291H173.811C79.0409 2.85291 2.21436 63.0987 2.21436 185.206Z" fill="white"/>
<path d="M252.352 188.058H0V185.205C0 126.783 17.6827 78.6345 51.1364 45.9654C81.9294 15.8948 124.35 0 173.811 0H252.352C277.723 0 299.141 7.21672 314.29 20.8705C331.592 36.464 340.365 59.5049 340.365 89.3535C340.365 119.279 331.394 144.532 314.421 162.385C298.681 178.941 276.638 188.058 252.352 188.058ZM4.44238 182.352H252.352C302.346 182.352 335.936 144.979 335.936 89.3535C335.936 13.8567 277.483 5.70614 252.352 5.70614H173.811C92.5162 5.70614 5.68886 52.1772 4.44238 182.352Z" fill="#E5E5E5"/>
<path d="M146.29 59.8394H116.745V69.0037H146.29V59.8394Z" fill="#89C7D0"/>
<path d="M248.602 59.8394H238.207V69.0037H248.602V59.8394Z" fill="#89C7D0"/>
<path d="M269.393 59.8394H258.998V69.0037H269.393V59.8394Z" fill="#89C7D0"/>
<path d="M227.264 59.8394H156.685V69.0037H227.264V59.8394Z" fill="#89C7D0"/>
<path d="M109.085 119.055H79.54V128.219H109.085V119.055Z" fill="#89C7D0"/>
<path d="M211.398 119.055H201.002V128.219H211.398V119.055Z" fill="#89C7D0"/>
<path d="M232.188 119.055H221.793V128.219H232.188V119.055Z" fill="#89C7D0"/>
<path d="M190.06 119.055H119.48V128.219H190.06V119.055Z" fill="#89C7D0"/>
<path d="M231.094 80.2828H201.549V89.4471H231.094V80.2828Z" fill="#89C7D0"/>
<path d="M271.035 80.2828H241.49V89.4471H271.035V80.2828Z" fill="#89C7D0"/>
<path d="M291.826 80.2828H281.43V89.4471H291.826V80.2828Z" fill="#89C7D0"/>
<path d="M110.726 80.2828H100.331V89.4471H110.726V80.2828Z" fill="#89C7D0"/>
<path d="M191.701 80.2828H121.122V89.4471H191.701V80.2828Z" fill="#89C7D0"/>
<path d="M169.816 100.021H140.271V109.186H169.816V100.021Z" fill="#89C7D0"/>
<path d="M129.876 100.021H100.331V109.186H129.876V100.021Z" fill="#89C7D0"/>
<path d="M291.826 100.021H281.43V109.186H291.826V100.021Z" fill="#89C7D0"/>
<path d="M271.035 100.021H260.639V109.186H271.035V100.021Z" fill="#89C7D0"/>
<path d="M250.244 100.021H179.665V109.186H250.244V100.021Z" fill="#89C7D0"/>
</svg>
