<svg width="254" height="231" viewBox="0 0 254 231" fill="none" xmlns="http://www.w3.org/2000/svg">
<g clip-path="url(#clip0_0_1)">
<path d="M215.8 102.733C209.436 109.246 208.309 117.982 207.289 126.892C206.529 133.482 205.828 140.17 203.108 146.128C200.809 151.077 197.151 155.404 192.486 158.69C192.068 158.988 191.642 159.275 191.208 159.554H168.002C167.966 159.267 167.938 158.977 167.91 158.69C166.912 147.846 169.61 136.986 175.636 127.593C178.048 123.913 180.958 120.526 184.298 117.51C187.918 123.272 192.387 128.842 192.387 128.842L190.368 112.692C197.83 107.535 206.56 104.117 215.8 102.733Z" fill="#F2F2F2"/>
<path d="M254 121.762C238.548 127.4 233.996 145.507 221.411 155.441C219.858 156.663 218.183 157.75 216.409 158.69C215.836 158.995 215.254 159.286 214.661 159.554H181.256C181.335 159.267 181.411 158.977 181.495 158.69C185.055 146.095 193.884 134.745 205.891 127.683C206.353 127.411 206.819 127.146 207.289 126.892C210.849 124.946 214.634 123.366 218.576 122.179C218.998 128.805 220.272 135.609 220.272 135.609L226.365 120.335C235.567 118.753 245.053 119.243 254 121.762Z" fill="#F2F2F2"/>
<path d="M253.952 159.122C253.952 159.179 253.94 159.235 253.917 159.288C253.893 159.34 253.858 159.388 253.814 159.428C253.77 159.468 253.717 159.5 253.66 159.522C253.602 159.543 253.541 159.554 253.478 159.554H0.473919C0.348228 159.554 0.227683 159.509 0.138807 159.428C0.0499298 159.347 0 159.237 0 159.122C0 159.008 0.0499298 158.898 0.138807 158.817C0.227683 158.736 0.348228 158.69 0.473919 158.69H253.478C253.541 158.69 253.602 158.701 253.66 158.723C253.717 158.744 253.77 158.776 253.814 158.816C253.858 158.857 253.893 158.904 253.917 158.957C253.94 159.009 253.952 159.065 253.952 159.122Z" fill="#CCCCCC"/>
<path d="M159.065 162.344H114.853C112.811 162.345 110.788 161.979 108.9 161.267C107.013 160.555 105.297 159.51 103.853 158.194C102.408 156.877 101.262 155.314 100.48 153.594C99.6976 151.873 99.2952 150.029 99.2952 148.167C99.2952 146.304 99.6976 144.46 100.48 142.74C101.262 141.019 102.408 139.456 103.853 138.14C105.297 136.823 107.013 135.779 108.9 135.067C110.788 134.355 112.811 133.989 114.853 133.99H159.065C161.108 133.989 163.131 134.355 165.019 135.067C166.906 135.779 168.622 136.823 170.066 138.14C171.511 139.456 172.657 141.019 173.439 142.74C174.221 144.46 174.624 146.304 174.624 148.167C174.624 150.029 174.221 151.873 173.439 153.594C172.657 155.314 171.511 156.877 170.066 158.194C168.622 159.51 166.906 160.555 165.019 161.267C163.131 161.979 161.108 162.345 159.065 162.344Z" fill="#2F2E41"/>
<path d="M118.263 214.035L124.284 217.956L143.74 198.649L134.853 192.862L118.263 214.035Z" fill="#FFB6B6"/>
<path d="M118.132 211.242L119.827 212.346L128.365 214.203L129.99 218.965L129.99 218.965C131.994 220.271 133.347 222.248 133.752 224.463C134.157 226.678 133.58 228.949 132.148 230.776L131.973 231L112.558 218.356L118.132 211.242Z" fill="#2F2E41"/>
<path d="M152.446 156.849L146.677 149.115C145.97 140.722 153.056 133.33 162.287 133.165C167.428 133.073 172.453 135.321 175.133 142.923C182.025 162.471 135.855 207.704 135.855 207.704L126.214 203.225L125.297 197.797L130.173 194.524L129.756 189.867L134.463 187.38L152.446 156.849Z" fill="#2F2E41"/>
<path d="M137.374 63.3484L144.506 68.299L153.106 70.7085C153.106 70.7085 156.661 116.304 159.865 119.225C163.069 122.146 160.179 122.224 160.823 126.018C161.467 129.812 163.032 137.59 163.032 137.59C141.407 148.026 122.764 148.306 107.789 136.094C107.597 135.339 107.695 134.546 108.065 133.848C108.435 133.15 109.055 132.588 109.824 132.256C112.611 130.908 107.255 124.615 109.532 123.563C111.81 122.511 108.606 113.383 108.606 113.383L110.708 94.3401L109.048 91.2959L113.099 72.6694L120.13 70.3285L122.939 64.1594L137.374 63.3484Z" fill="#89C7D0"/>
<path d="M130.074 60.593C137.864 60.593 144.18 54.8353 144.18 47.7328C144.18 40.6304 137.864 34.8727 130.074 34.8727C122.283 34.8727 115.968 40.6304 115.968 47.7328C115.968 54.8353 122.283 60.593 130.074 60.593Z" fill="#FFB6B6"/>
<path d="M84.6405 23.2752C85.2341 23.8965 85.671 24.6289 85.9205 25.4208C86.17 26.2128 86.226 27.0449 86.0846 27.8587C85.9431 28.6725 85.6077 29.4481 85.1019 30.131C84.5961 30.8138 83.9323 31.3872 83.1571 31.8108L87.6507 51.4158L77.0363 47.5844L74.3964 29.5546C73.7021 28.3202 73.5286 26.8965 73.9088 25.5533C74.289 24.2101 75.1964 23.0407 76.4591 22.2667C77.7218 21.4927 79.2521 21.1678 80.76 21.3537C82.2678 21.5396 83.6486 22.2232 84.6405 23.2752Z" fill="#FFB6B6"/>
<path d="M74.5012 36.3763L78.7936 72.4136L78.9456 72.4816C79.071 72.5377 84.509 74.9695 91.1842 77.8655C92.3103 78.354 92.1489 80.4703 93.3258 80.9761C94.1365 81.3245 96.2773 80.0603 97.0965 80.4095C104.393 83.5202 111.771 86.545 114.711 87.3646C118.68 88.5112 122.961 88.3856 126.841 87.0086L126.935 86.9695L126.984 86.8867C127.975 85.1935 128.304 83.2428 127.916 81.3563C127.528 79.4698 126.447 77.7601 124.85 76.5091C117.106 70.5065 107.938 66.2269 98.069 64.0082L92.4537 62.7522L85.2619 37.0808L74.5012 36.3763Z" fill="#89C7D0"/>
<path d="M118.584 36.6849C119.744 33.6081 125.519 31.474 134.881 31.1773C144.243 30.8805 146.617 40.9386 146.617 40.9386C152.867 45.5606 139.944 57.9348 139.318 57.4891L139.599 55.1643C140.065 51.3134 142.043 48.3087 139.527 44.2954L137.112 44.3207L132.531 45.1239C132.245 45.1739 131.949 45.137 131.689 45.0187C131.429 44.9004 131.218 44.7074 131.09 44.4694C130.962 44.2313 130.924 43.9615 130.98 43.7015C131.037 43.4414 131.186 43.2057 131.404 43.0305L131.446 42.9968L131.342 42.8499C129.728 43.5249 128.065 44.1509 126.301 44.2454C124.316 44.3518 122.146 43.6316 121.195 42.0394C120.941 41.6017 120.786 41.1221 120.739 40.6289C118.062 41.6039 116.838 44.6125 116.838 44.6125C116.838 44.6125 117.424 39.7616 118.584 36.6849Z" fill="#2F2E41"/>
<path d="M111.144 10.5727C110.344 7.90582 108.7 5.51295 106.417 3.69287C104.134 1.87279 101.314 0.706159 98.3079 0.338661C98.2413 0.329649 98.1781 0.341565 98.1118 0.337447C98.0262 0.312349 97.9388 0.293024 97.8501 0.279631C83.8295 -1.45871 67.6451 4.97422 61.8019 17.7257C58.9089 14.0496 54.2962 11.6746 49.3629 11.9107C43.0693 12.212 37.515 16.607 35.8136 22.3877C35.7197 22.7352 35.7453 23.1006 35.8869 23.4344C36.0285 23.7682 36.2792 24.0542 36.6051 24.2537C37.7045 25.0091 38.4555 25.5385 39.8082 25.8135C42.3545 26.3309 44.9097 26.805 47.4741 27.2356C52.4779 28.0757 57.5079 28.7549 62.5639 29.2731C72.8232 30.3281 83.1529 30.7027 93.4717 30.3939C96.9079 30.2912 100.222 30.1818 103.37 28.7269C105.685 27.621 107.643 25.9822 109.048 23.9732C111.797 20.1468 112.523 15.0043 111.144 10.5727Z" fill="#3F3D56"/>
<path d="M109.599 11.2481C108.84 8.88266 107.326 6.77679 105.25 5.19926C103.091 3.59335 100.482 2.56968 97.7187 2.24381H97.5515L97.3962 2.2184C97.3467 2.2042 97.2961 2.19328 97.2448 2.18572C92.6214 1.68484 87.9357 1.99042 83.4375 3.08615C74.7915 5.15932 66.6035 10.0681 62.7803 17.9868L62.2347 19.1233L61.4183 18.1321C58.7301 14.8898 54.6998 12.9982 50.5381 12.9982C50.331 12.9982 50.1239 13.0018 49.9128 13.0127C44.1302 13.2741 38.9769 17.0646 37.3759 22.2312C37.3358 22.4141 37.3596 22.6039 37.4439 22.7739C37.5282 22.9438 37.6687 23.0854 37.8458 23.1788L37.9096 23.2224C38.9331 23.8868 39.5503 24.2899 40.6854 24.5113C43.1585 24.9906 45.6754 25.4336 48.1645 25.8293C52.9913 26.599 57.9455 27.2344 62.8838 27.7173C71.618 28.5721 80.4008 28.9444 89.1843 28.832C90.4706 28.8174 91.7543 28.792 93.0353 28.7557C96.3329 28.6649 99.4512 28.5742 102.406 27.278C104.523 26.3215 106.332 24.8803 107.655 23.0953C108.907 21.3693 109.73 19.4145 110.066 17.3679C110.402 15.3213 110.242 13.2326 109.599 11.2481Z" fill="white"/>
<path d="M89.1843 28.832C80.4008 28.9444 71.618 28.5721 62.8838 27.7173C57.9455 27.2344 52.9913 26.599 48.1645 25.8293C45.6754 25.4335 43.1585 24.9906 40.6854 24.5113C39.5504 24.2899 38.9331 23.8868 37.9096 23.2224L37.8458 23.1788C37.6687 23.0854 37.5282 22.9438 37.4439 22.7738C37.3596 22.6039 37.3358 22.4141 37.3759 22.2312C38.9769 17.0646 44.1302 13.2741 49.9128 13.0127C50.1239 13.0018 50.331 12.9982 50.5381 12.9982C54.6998 12.9982 58.7301 14.8898 61.4183 18.1321L62.2347 19.1233L62.7803 17.9868C66.6035 10.0681 74.7915 5.15931 83.4375 3.08614C85.1819 4.52393 86.3049 6.72781 85.6677 8.77193C84.8991 11.2518 81.8565 12.7985 81.3467 15.3327C80.8808 17.6455 82.6968 19.795 84.5646 21.4143C86.4324 23.03 88.5949 24.6529 89.1365 26.9476C89.2814 27.5675 89.2977 28.2066 89.1843 28.832Z" fill="#89C7D0"/>
<path d="M96.6912 21.7846C100.65 21.7846 103.86 18.8586 103.86 15.2492C103.86 11.6398 100.65 8.71385 96.6912 8.71385C92.7322 8.71385 89.5227 11.6398 89.5227 15.2492C89.5227 18.8586 92.7322 21.7846 96.6912 21.7846Z" fill="#89C7D0"/>
<path d="M99.6961 14.552L97.0079 12.1012C96.9663 12.0633 96.9169 12.0332 96.8625 12.0127C96.8082 11.9921 96.7499 11.9816 96.6911 11.9816C96.6323 11.9816 96.574 11.9921 96.5196 12.0127C96.4653 12.0332 96.4159 12.0633 96.3743 12.1012L93.6861 14.552C93.6022 14.6286 93.5551 14.7325 93.5552 14.8407C93.5552 14.949 93.6024 15.0528 93.6864 15.1293C93.7704 15.2059 93.8842 15.2489 94.003 15.249C94.1217 15.249 94.2357 15.2061 94.3197 15.1296L96.2431 13.3761V18.1085C96.2431 18.2168 96.2903 18.3207 96.3743 18.3973C96.4583 18.4739 96.5723 18.5169 96.6911 18.5169C96.8099 18.5169 96.9239 18.4739 97.0079 18.3973C97.0919 18.3207 97.1391 18.2168 97.1391 18.1085V13.3761L99.0625 15.1296C99.1041 15.1676 99.1535 15.1977 99.2079 15.2183C99.2622 15.2388 99.3205 15.2494 99.3794 15.2494C99.4382 15.2495 99.4965 15.2389 99.5509 15.2184C99.6053 15.1979 99.6547 15.1678 99.6963 15.1298C99.7379 15.0919 99.771 15.0468 99.7935 14.9972C99.816 14.9477 99.8275 14.8945 99.8275 14.8409C99.8275 14.7872 99.8159 14.7341 99.7933 14.6845C99.7708 14.6349 99.7377 14.5899 99.6961 14.552Z" fill="white"/>
<path d="M156.681 208.564L151.034 212.924L129.903 195.14L138.237 188.706L156.681 208.564Z" fill="#FFB6B6"/>
<path d="M162.756 212.443L144.548 226.499L144.353 226.29C142.761 224.576 141.982 222.356 142.185 220.118C142.389 217.881 143.559 215.808 145.438 214.357L145.439 214.357L146.628 209.488L154.971 206.998L156.56 205.771L162.756 212.443Z" fill="#2F2E41"/>
<path d="M121.781 159.391L126.449 150.163C126.396 141.745 118.667 134.909 109.453 135.436C104.321 135.73 99.5155 138.347 97.5301 146.124C92.4248 166.123 142.518 207.742 142.518 207.742L151.722 202.555L152.147 197.077L146.992 194.18L146.987 189.508L142.072 187.382L121.781 159.391Z" fill="#2F2E41"/>
<path d="M118.152 141.613V109.555C118.152 108.906 118.436 108.284 118.939 107.825C119.442 107.367 120.124 107.109 120.836 107.108H147.392C148.104 107.109 148.786 107.367 149.289 107.825C149.793 108.284 150.076 108.906 150.076 109.555V141.613C150.076 142.262 149.793 142.884 149.289 143.342C148.786 143.801 148.104 144.059 147.392 144.06H120.836C120.124 144.059 119.442 143.801 118.939 143.343C118.436 142.884 118.152 142.262 118.152 141.613Z" fill="#E6E6E6"/>
<path d="M120.189 131.93V111.32C120.189 110.713 120.455 110.13 120.926 109.701C121.397 109.271 122.036 109.029 122.703 109.028H145.525C146.192 109.029 146.831 109.271 147.302 109.701C147.774 110.13 148.039 110.713 148.04 111.32V139.847C148.039 140.455 147.774 141.038 147.302 141.467C146.831 141.897 146.192 142.139 145.525 142.139H131.387C128.418 142.136 125.572 141.06 123.472 139.146C121.373 137.232 120.192 134.637 120.189 131.93Z" fill="white"/>
<path d="M123.884 117.071C123.885 116.477 124.144 115.908 124.604 115.488C125.065 115.068 125.689 114.832 126.341 114.831H142.173C142.824 114.831 143.449 115.067 143.91 115.487C144.371 115.907 144.629 116.477 144.629 117.071C144.629 117.665 144.371 118.235 143.91 118.655C143.449 119.075 142.824 119.311 142.173 119.311H126.341C125.689 119.31 125.065 119.074 124.604 118.654C124.144 118.234 123.885 117.665 123.884 117.071Z" fill="#E6E6E6"/>
<path d="M123.884 124.039C123.885 123.445 124.144 122.876 124.604 122.456C125.065 122.036 125.689 121.8 126.341 121.799H142.173C142.824 121.799 143.449 122.035 143.91 122.455C144.371 122.875 144.629 123.445 144.629 124.039C144.629 124.633 144.371 125.203 143.91 125.623C143.449 126.043 142.824 126.279 142.173 126.279H126.341C125.689 126.278 125.065 126.042 124.604 125.622C124.144 125.202 123.885 124.633 123.884 124.039Z" fill="#E6E6E6"/>
<path d="M123.884 131.007C123.885 130.413 124.144 129.844 124.604 129.424C125.065 129.004 125.689 128.768 126.341 128.767H142.173C142.824 128.767 143.449 129.003 143.91 129.423C144.371 129.843 144.629 130.413 144.629 131.007C144.629 131.601 144.371 132.171 143.91 132.591C143.449 133.011 142.824 133.247 142.173 133.247H126.341C125.689 133.246 125.065 133.01 124.604 132.59C124.144 132.17 123.885 131.601 123.884 131.007Z" fill="#E6E6E6"/>
<path d="M141.842 144.387C141.81 143.564 141.976 142.744 142.329 141.986C142.683 141.227 143.214 140.548 143.886 139.997C144.558 139.446 145.354 139.036 146.219 138.796C147.083 138.556 147.995 138.492 148.89 138.608L158.94 120.798L164.539 129.868L154.137 145.39C153.824 146.748 152.975 147.953 151.752 148.778C150.529 149.603 149.016 149.991 147.501 149.867C145.985 149.744 144.572 149.118 143.529 148.108C142.486 147.098 141.886 145.774 141.842 144.387Z" fill="#FFB6B6"/>
<path d="M158.767 140.031L180.324 109.571L180.253 109.431C180.171 109.271 175.29 99.659 170.56 90.8554C169.832 89.4997 169.107 88.1631 168.404 86.8832C168.1 86.3308 167.801 85.7899 167.507 85.2606C165.52 81.6901 163.785 78.7389 162.749 77.337C160.457 74.1675 157.045 71.8079 153.08 70.65L152.98 70.6266L152.885 70.6628C150.945 71.409 149.342 72.7355 148.34 74.4237C147.339 76.1118 146.998 78.0608 147.374 79.9492C149.244 89.058 153.41 97.6459 159.544 105.035L163.039 109.235L150.895 133.306L158.767 140.031Z" fill="#89C7D0"/>
</g>
<defs>
<clipPath id="clip0_0_1">
<rect width="254" height="231" fill="white"/>
</clipPath>
</defs>
</svg>
