<svg width="237" height="235" viewBox="0 0 237 235" fill="none" xmlns="http://www.w3.org/2000/svg">
<g clip-path="url(#clip0_0_1)">
<path d="M167.977 215.516H59.8744C57.3071 215.513 54.8458 214.412 53.0307 212.456C51.2156 210.499 50.1951 207.846 50.1932 205.08V160.3C49.9693 160.575 49.7351 160.846 49.4939 161.11V205.08C49.4964 208.046 50.5907 210.89 52.5368 212.988C54.4829 215.086 57.1218 216.266 59.8744 216.27H168.281C168.176 216.021 168.075 215.769 167.977 215.516ZM50.1932 49.9983C50.1951 47.2316 51.2156 44.5788 53.0307 42.6221C54.8458 40.6654 57.3071 39.5647 59.8744 39.5616H95.8934C95.827 39.3091 95.764 39.0604 95.7046 38.808H59.8744C57.1218 38.8117 54.4829 39.992 52.5368 42.0899C50.5907 44.1878 49.4964 47.0319 49.4939 49.9983V118.647C49.7351 118.911 49.9659 119.182 50.1932 119.457V49.9983ZM195.346 58.7998L172.76 39.5201C172.221 39.0594 171.553 38.8085 170.865 38.808H150.764C150.708 39.0604 150.646 39.3129 150.579 39.5616H170.865C171.395 39.5629 171.909 39.7552 172.326 40.1079L194.912 59.3913C195.127 59.5735 195.3 59.806 195.419 60.071C195.537 60.336 195.599 60.6267 195.598 60.921V173.136C195.832 173.144 196.066 173.163 196.297 173.182V60.921C196.298 60.5129 196.213 60.1097 196.049 59.7422C195.884 59.3747 195.644 59.0524 195.346 58.7998Z" fill="#3F3D56"/>
<path d="M195.047 59.7951H176.823C176.164 59.7951 175.512 59.6553 174.903 59.3836C174.294 59.1119 173.741 58.7137 173.275 58.2117C172.81 57.7097 172.44 57.1138 172.188 56.4579C171.936 55.802 171.806 55.0991 171.806 54.3891V39.8835C171.806 39.82 171.823 39.7578 171.854 39.704C171.885 39.6502 171.93 39.607 171.983 39.5793C172.036 39.5517 172.095 39.5407 172.154 39.5477C172.213 39.5546 172.268 39.5792 172.314 39.6187L195.242 59.1924C195.293 59.236 195.33 59.2956 195.348 59.3629C195.367 59.4303 195.365 59.5021 195.344 59.5683C195.322 59.6346 195.282 59.692 195.229 59.7326C195.176 59.7733 195.113 59.7951 195.047 59.7951Z" fill="#E6E6E6"/>
<path d="M195.047 60.1719H176.823C175.4 60.1701 174.036 59.5603 173.03 58.4762C172.024 57.3921 171.458 55.9222 171.457 54.389V39.8835C171.457 39.7492 171.492 39.6176 171.558 39.5038C171.624 39.39 171.719 39.2986 171.831 39.2401C171.943 39.1816 172.068 39.1584 172.192 39.1731C172.316 39.1878 172.434 39.2398 172.531 39.3231L195.459 58.8971C195.567 58.9892 195.646 59.1153 195.684 59.2578C195.723 59.4002 195.719 59.5521 195.674 59.6922C195.629 59.8324 195.544 59.9538 195.432 60.0398C195.319 60.1257 195.185 60.1719 195.047 60.1719ZM172.156 39.9639V54.389C172.157 55.7224 172.649 57.0008 173.524 57.9436C174.399 58.8865 175.585 59.4168 176.823 59.4183H194.944L172.156 39.9639Z" fill="#3F3D56"/>
<path d="M158.871 84.7978H105.257C104.592 84.7978 103.954 84.513 103.483 84.0061C103.013 83.4992 102.749 82.8117 102.749 82.0948C102.749 81.3779 103.013 80.6904 103.483 80.1835C103.954 79.6766 104.592 79.3918 105.257 79.3918H158.871C159.536 79.3918 160.174 79.6766 160.644 80.1835C161.115 80.6904 161.379 81.3779 161.379 82.0948C161.379 82.8117 161.115 83.4992 160.644 84.0061C160.174 84.513 159.536 84.7978 158.871 84.7978Z" fill="#CCCCCC"/>
<path d="M169.217 93.9204H105.257C104.592 93.9204 103.954 93.6356 103.483 93.1287C103.013 92.6218 102.749 91.9343 102.749 91.2174C102.749 90.5005 103.013 89.813 103.483 89.3061C103.954 88.7992 104.592 88.5144 105.257 88.5144H169.217C169.882 88.5144 170.52 88.7992 170.991 89.3061C171.461 89.813 171.725 90.5005 171.725 91.2174C171.725 91.9343 171.461 92.6218 170.991 93.1287C170.52 93.6356 169.882 93.9204 169.217 93.9204Z" fill="#CCCCCC"/>
<path d="M158.871 125.681H105.257C104.592 125.681 103.954 125.396 103.483 124.889C103.013 124.382 102.749 123.694 102.749 122.978C102.749 122.261 103.013 121.573 103.483 121.066C103.954 120.559 104.592 120.275 105.257 120.275H158.871C159.536 120.275 160.174 120.559 160.644 121.066C161.115 121.573 161.379 122.261 161.379 122.978C161.379 123.694 161.115 124.382 160.644 124.889C160.174 125.396 159.536 125.681 158.871 125.681Z" fill="#CCCCCC"/>
<path d="M169.217 134.803H105.257C104.592 134.803 103.954 134.518 103.483 134.012C103.013 133.505 102.749 132.817 102.749 132.1C102.749 131.383 103.013 130.696 103.483 130.189C103.954 129.682 104.592 129.397 105.257 129.397H169.217C169.882 129.397 170.52 129.682 170.991 130.189C171.461 130.696 171.725 131.383 171.725 132.1C171.725 132.817 171.461 133.505 170.991 134.012C170.52 134.518 169.882 134.803 169.217 134.803Z" fill="#CCCCCC"/>
<path d="M158.871 166.563H105.257C104.927 166.563 104.601 166.493 104.297 166.358C103.993 166.222 103.716 166.023 103.483 165.772C103.25 165.521 103.066 165.223 102.939 164.895C102.813 164.567 102.749 164.215 102.749 163.86C102.749 163.505 102.813 163.154 102.939 162.826C103.066 162.498 103.25 162.2 103.483 161.949C103.716 161.698 103.993 161.499 104.297 161.363C104.601 161.227 104.927 161.157 105.257 161.157H158.871C159.536 161.157 160.174 161.442 160.644 161.949C161.115 162.456 161.379 163.144 161.379 163.86C161.379 164.577 161.115 165.265 160.644 165.772C160.174 166.279 159.536 166.563 158.871 166.563Z" fill="#CCCCCC"/>
<path d="M169.217 175.686H105.257C104.927 175.686 104.601 175.616 104.297 175.48C103.993 175.344 103.716 175.145 103.483 174.894C103.25 174.643 103.066 174.345 102.939 174.017C102.813 173.689 102.749 173.338 102.749 172.983C102.749 172.628 102.813 172.277 102.939 171.949C103.066 171.621 103.25 171.323 103.483 171.072C103.716 170.821 103.993 170.622 104.297 170.486C104.601 170.35 104.927 170.28 105.257 170.28H169.217C169.547 170.28 169.873 170.35 170.177 170.486C170.481 170.622 170.758 170.821 170.991 171.072C171.224 171.323 171.408 171.621 171.535 171.949C171.661 172.277 171.725 172.628 171.725 172.983C171.725 173.338 171.661 173.689 171.535 174.017C171.408 174.345 171.224 174.643 170.991 174.894C170.758 175.145 170.481 175.344 170.177 175.48C169.873 175.616 169.547 175.686 169.217 175.686Z" fill="#CCCCCC"/>
<path d="M82.9305 96.2097C87.8266 96.2097 91.7958 91.9324 91.7958 86.6561C91.7958 81.3798 87.8266 77.1025 82.9305 77.1025C78.0343 77.1025 74.0652 81.3798 74.0652 86.6561C74.0652 91.9324 78.0343 96.2097 82.9305 96.2097Z" fill="#89C7D0"/>
<path d="M82.0519 90.3005C81.8525 90.3009 81.6584 90.2314 81.4988 90.1024L81.4889 90.0944L79.4054 88.3769C79.3087 88.2973 79.2276 88.1979 79.1665 88.0844C79.1055 87.9709 79.0658 87.8456 79.0498 87.7155C79.0338 87.5855 79.0417 87.4534 79.0731 87.3267C79.1045 87.2 79.1588 87.0812 79.2328 86.9771C79.3069 86.873 79.3993 86.7856 79.5046 86.7201C79.61 86.6545 79.7264 86.6119 79.8471 86.5948C79.9678 86.5778 80.0904 86.5865 80.2079 86.6205C80.3255 86.6546 80.4356 86.7133 80.5321 86.7932L81.8816 87.9084L85.0705 83.4251C85.1445 83.3212 85.2367 83.2339 85.3419 83.1684C85.4471 83.1028 85.5633 83.0603 85.6838 83.0431C85.8043 83.026 85.9267 83.0346 86.0442 83.0684C86.1616 83.1023 86.2716 83.1607 86.3681 83.2404L86.3486 83.2702L86.3689 83.2406C86.5635 83.4018 86.6908 83.6396 86.7229 83.9018C86.755 84.164 86.6892 84.4292 86.5401 84.6392L82.7892 89.9102C82.7024 90.0317 82.5908 90.13 82.4631 90.1974C82.3354 90.2649 82.195 90.2998 82.0528 90.2993L82.0519 90.3005Z" fill="white"/>
<path d="M82.9305 137.093C87.8266 137.093 91.7958 132.815 91.7958 127.539C91.7958 122.263 87.8266 117.985 82.9305 117.985C78.0343 117.985 74.0652 122.263 74.0652 127.539C74.0652 132.815 78.0343 137.093 82.9305 137.093Z" fill="#E6E6E6"/>
<path d="M82.052 131.183C81.8526 131.184 81.6584 131.114 81.4989 130.985L81.489 130.977L79.4055 129.26C79.2106 129.099 79.0831 128.861 79.0509 128.599C79.0188 128.336 79.0847 128.071 79.2341 127.861C79.3835 127.651 79.6042 127.513 79.8476 127.479C80.091 127.444 80.3373 127.515 80.5322 127.676L81.8817 128.791L85.0706 124.308C85.1445 124.204 85.2368 124.117 85.342 124.051C85.4472 123.986 85.5634 123.943 85.6839 123.926C85.8044 123.909 85.9268 123.917 86.0442 123.951C86.1616 123.985 86.2717 124.043 86.3682 124.123L86.3486 124.153L86.369 124.123C86.5636 124.285 86.6909 124.522 86.723 124.785C86.7551 125.047 86.6893 125.312 86.5402 125.522L82.7893 130.793C82.7025 130.914 82.5909 131.013 82.4632 131.08C82.3355 131.148 82.1951 131.183 82.0528 131.182L82.052 131.183Z" fill="white"/>
<path d="M82.9305 177.975C87.8266 177.975 91.7958 173.698 91.7958 168.422C91.7958 163.145 87.8266 158.868 82.9305 158.868C78.0343 158.868 74.0652 163.145 74.0652 168.422C74.0652 173.698 78.0343 177.975 82.9305 177.975Z" fill="#E6E6E6"/>
<path d="M82.0519 172.066C81.8525 172.066 81.6584 171.997 81.4988 171.868L81.4889 171.86L79.4054 170.142C79.3087 170.063 79.2276 169.963 79.1665 169.85C79.1055 169.736 79.0658 169.611 79.0498 169.481C79.0338 169.351 79.0417 169.219 79.0731 169.092C79.1045 168.966 79.1588 168.847 79.2328 168.743C79.3069 168.639 79.3993 168.551 79.5046 168.486C79.61 168.42 79.7264 168.378 79.8471 168.36C79.9678 168.343 80.0904 168.352 80.2079 168.386C80.3255 168.42 80.4356 168.479 80.5321 168.559L81.8816 169.674L85.0705 165.191C85.1445 165.087 85.2367 165 85.3419 164.934C85.4471 164.868 85.5633 164.826 85.6838 164.809C85.8043 164.792 85.9267 164.8 86.0442 164.834C86.1616 164.868 86.2716 164.926 86.3681 165.006L86.3486 165.036L86.3689 165.006C86.5635 165.167 86.6908 165.405 86.7229 165.667C86.755 165.93 86.6892 166.195 86.5401 166.405L82.7892 171.676C82.7024 171.797 82.5908 171.896 82.4631 171.963C82.3354 172.031 82.195 172.065 82.0528 172.065L82.0519 172.066Z" fill="white"/>
<path d="M207.575 231.463C207.074 231.745 206.565 232.011 206.048 232.263C205.577 232.493 205.098 232.708 204.612 232.91C204.434 232.983 204.254 233.056 204.073 233.129C202.644 233.687 201.177 234.123 199.684 234.433C198.945 234.59 198.196 234.713 197.438 234.802C196.812 234.878 196.179 234.933 195.54 234.965C195.085 234.99 194.63 235 194.172 235C192.357 235.001 190.546 234.818 188.763 234.454C188.298 234.364 187.843 234.256 187.388 234.138C185.187 233.569 183.056 232.722 181.04 231.613C180.86 231.515 180.679 231.411 180.498 231.31C180.23 231.157 179.969 230.997 179.708 230.83C179.833 230.642 179.969 230.458 180.108 230.277C181.618 228.26 183.505 226.609 185.647 225.431C187.789 224.253 190.137 223.575 192.539 223.44C194.94 223.306 197.341 223.718 199.585 224.65C201.829 225.583 203.865 227.014 205.561 228.851C206.149 229.488 206.695 230.169 207.194 230.889C207.326 231.077 207.452 231.268 207.575 231.463Z" fill="#89C7D0"/>
<path d="M194.816 216.186C202.642 216.186 208.987 209.349 208.987 200.915C208.987 192.481 202.642 185.644 194.816 185.644C186.99 185.644 180.646 192.481 180.646 200.915C180.646 209.349 186.99 216.186 194.816 216.186Z" fill="#2F2E41"/>
<path d="M198.585 216.208C203.696 213.197 205.575 206.291 202.781 200.783C199.987 195.275 193.578 193.251 188.467 196.262C183.356 199.273 181.478 206.179 184.272 211.686C187.066 217.194 193.474 219.219 198.585 216.208Z" fill="#A0616A"/>
<path d="M204.608 199.086C202.198 200.876 199.338 201.829 196.411 201.816C197.455 202.596 198.643 203.123 199.895 203.361C196.003 204.26 191.981 204.285 188.08 203.432C187.213 203.282 186.376 202.973 185.606 202.517C185.223 202.286 184.889 201.971 184.626 201.592C184.363 201.213 184.177 200.778 184.08 200.316C183.821 198.721 184.974 197.271 186.174 196.294C188.01 194.821 190.126 193.806 192.371 193.322C194.616 192.839 196.932 192.899 199.152 193.499C200.602 193.903 202.055 194.585 202.996 195.84C203.938 197.094 204.217 199.029 203.32 200.321L204.608 199.086Z" fill="#2F2E41"/>
<path d="M196.297 172.481C196.066 172.462 195.832 172.447 195.598 172.436C195.125 172.409 194.65 172.398 194.171 172.398C189.408 172.398 184.718 173.66 180.515 176.074C176.311 178.487 172.723 181.977 170.066 186.237C167.409 190.497 165.765 195.396 165.279 200.501C164.793 205.607 165.479 210.764 167.277 215.516C167.372 215.769 167.47 216.021 167.575 216.27C169.977 222.136 173.983 227.072 179.056 230.422L179.242 230.538C179.399 230.64 179.553 230.738 179.707 230.828C179.969 230.998 180.231 231.156 180.497 231.311C180.679 231.412 180.861 231.514 181.039 231.612C183.055 232.722 185.186 233.569 187.388 234.137C187.843 234.257 188.297 234.363 188.762 234.453C190.545 234.817 192.356 235 194.171 234.999C194.629 234.999 195.084 234.988 195.542 234.965C196.178 234.935 196.811 234.879 197.437 234.803C198.195 234.713 198.945 234.59 199.685 234.434C201.177 234.124 202.644 233.688 204.073 233.131C204.254 233.055 204.436 232.984 204.611 232.908C205.101 232.709 205.576 232.494 206.048 232.264C206.565 232.012 207.075 231.744 207.576 231.461C212.599 228.625 216.751 224.28 219.53 218.952C219.542 218.924 219.556 218.896 219.572 218.87C221.937 214.275 223.191 209.113 223.218 203.859C223.245 198.604 222.043 193.428 219.724 188.806C217.405 184.184 214.043 180.266 209.949 177.412C205.855 174.559 201.16 172.863 196.297 172.481ZM222.072 209.443C221.51 212.603 220.487 215.648 219.04 218.463C219.016 218.512 218.991 218.561 218.967 218.606C216.245 223.856 212.152 228.127 207.195 230.889C206.698 231.168 206.196 231.429 205.688 231.672C205.265 231.876 204.831 232.072 204.394 232.253C204.212 232.328 204.024 232.407 203.838 232.475C202.603 232.961 201.338 233.351 200.052 233.643C199.098 233.863 198.134 234.026 197.164 234.133C196.566 234.204 195.961 234.253 195.349 234.276C194.958 234.295 194.566 234.306 194.171 234.306C192.415 234.307 190.663 234.13 188.937 233.779C187.887 233.571 186.849 233.297 185.829 232.957C184.275 232.441 182.764 231.782 181.315 230.987C181.147 230.893 180.979 230.798 180.815 230.7C180.577 230.565 180.34 230.425 180.109 230.278C179.934 230.173 179.759 230.06 179.588 229.951C179.487 229.887 179.389 229.822 179.287 229.755C174.457 226.537 170.626 221.843 168.281 216.27C168.176 216.021 168.075 215.769 167.977 215.516C166.17 210.865 165.458 205.805 165.903 200.785C166.349 195.766 167.938 190.943 170.53 186.745C173.122 182.547 176.637 179.104 180.761 176.723C184.885 174.342 189.492 173.095 194.171 173.095C194.65 173.095 195.125 173.106 195.597 173.136C195.832 173.144 196.066 173.163 196.297 173.182C200.286 173.507 204.167 174.737 207.685 176.791C211.203 178.844 214.279 181.675 216.712 185.098C219.145 188.521 220.88 192.458 221.804 196.654C222.727 200.849 222.819 205.207 222.072 209.443Z" fill="#3F3D56"/>
<path d="M187.64 185.855C187.487 184.127 185.523 183.064 183.987 183.586C182.451 184.107 181.443 185.774 181.138 187.478C180.991 188.196 180.978 188.938 181.098 189.661C181.217 190.385 181.469 191.076 181.837 191.694C182.613 192.898 184.04 193.65 185.371 193.344C186.89 192.995 187.942 191.397 188.243 189.755C188.545 188.113 188.246 186.42 187.947 184.777L187.64 185.855Z" fill="#2F2E41"/>
<path d="M209.257 188.323C209.104 186.596 207.14 185.532 205.604 186.054C204.068 186.576 203.06 188.242 202.755 189.946C202.608 190.664 202.594 191.406 202.714 192.13C202.834 192.853 203.085 193.544 203.454 194.162C204.23 195.367 205.657 196.118 206.987 195.812C208.506 195.463 209.559 193.865 209.86 192.223C210.161 190.581 209.862 188.888 209.564 187.245L209.257 188.323Z" fill="#2F2E41"/>
<path d="M138.727 57.3627C134.23 60.4652 129.021 62.157 123.683 62.2485C118.345 62.3401 113.089 60.8277 108.503 57.8809C109.31 56.2628 110.332 54.7806 111.537 53.4815C113.396 51.4683 115.659 49.9412 118.152 49.0175C120.644 48.0938 123.3 47.7981 125.915 48.1531C128.53 48.5081 131.034 49.5043 133.236 51.0653C135.438 52.6262 137.279 54.7103 138.617 57.1575C138.652 57.2236 138.691 57.2931 138.727 57.3627Z" fill="#89C7D0"/>
<path d="M122.353 40.7318C130.231 40.7318 136.618 33.8493 136.618 25.3594C136.618 16.8694 130.231 9.98699 122.353 9.98699C114.475 9.98699 108.088 16.8694 108.088 25.3594C108.088 33.8493 114.475 40.7318 122.353 40.7318Z" fill="#2F2E41"/>
<path d="M131.569 36.2022C134.382 30.6577 132.491 23.706 127.346 20.6751C122.201 17.6442 115.75 19.6819 112.937 25.2263C110.125 30.7708 112.016 37.7225 117.161 40.7534C122.306 43.7843 128.757 41.7467 131.569 36.2022Z" fill="#FFB8B8"/>
<path d="M112.496 23.5177C114.922 25.3197 117.802 26.2788 120.748 26.2661C119.697 27.0514 118.501 27.5819 117.241 27.821C121.159 28.7266 125.207 28.7511 129.134 27.893C130.007 27.7422 130.849 27.4305 131.624 26.9715C132.01 26.7392 132.346 26.4219 132.611 26.0403C132.876 25.6587 133.063 25.2214 133.161 24.7566C133.422 23.1502 132.26 21.6907 131.053 20.7071C129.205 19.2241 127.074 18.2024 124.814 17.7158C122.555 17.2292 120.223 17.29 117.988 17.8937C116.529 18.3002 115.067 18.9871 114.119 20.2501C113.171 21.5132 112.89 23.4604 113.793 24.761L112.496 23.5177Z" fill="#2F2E41"/>
<path d="M123.228 0C115.527 0.0092268 108.144 3.30961 102.699 9.17718C97.2532 15.0447 94.1897 23.0004 94.1802 31.2988C94.1814 33.8303 94.4702 36.3522 95.0403 38.808C95.0997 39.0604 95.1591 39.3129 95.2221 39.5616C96.8975 46.1813 100.547 52.0233 105.608 56.187C110.669 60.3506 116.86 62.6046 123.228 62.6014C129.596 62.6013 135.788 60.3464 140.851 56.1836C145.914 52.0208 149.568 46.1806 151.25 39.5616C151.313 39.3091 151.373 39.0604 151.429 38.808C152.482 34.1973 152.549 29.3888 151.624 24.7462C150.699 20.1036 148.807 15.7484 146.09 12.0099C143.373 8.27143 139.903 5.24754 135.942 3.16689C131.982 1.08625 127.634 0.00332187 123.228 0ZM150.764 38.808C150.708 39.0604 150.646 39.3129 150.579 39.5616C149.4 44.089 147.268 48.2628 144.35 51.7593C141.432 55.2559 137.806 57.9812 133.753 59.724C129.7 61.4667 125.329 62.1801 120.979 61.8088C116.629 61.4375 112.417 59.9914 108.669 57.5828C102.44 53.5435 97.872 47.0999 95.8934 39.5616C95.8269 39.3091 95.7639 39.0604 95.7045 38.808C95.1219 36.3543 94.8271 33.8316 94.827 31.2988C94.8316 26.9634 95.6908 22.6785 97.3479 18.7279C99.0049 14.7774 101.422 11.2513 104.439 8.38322C107.456 5.51517 111.004 3.37062 114.848 2.09162C118.692 0.812613 122.744 0.428349 126.736 0.964271C130.728 1.50019 134.569 2.94407 138.005 5.20027C141.44 7.45647 144.392 10.4735 146.663 14.0515C148.935 17.6295 150.476 21.6869 151.183 25.9548C151.89 30.2228 151.747 34.6039 150.764 38.808Z" fill="#3F3D56"/>
<path d="M44.5465 165.925C40.0508 169.028 34.842 170.72 29.504 170.812C24.1661 170.903 18.9098 169.391 14.3245 166.445C14.3733 166.343 14.4257 166.241 14.4817 166.143C15.9525 163.286 18.096 160.897 20.6963 159.217C23.2966 157.537 26.2619 156.624 29.2935 156.572C32.325 156.52 35.3159 157.329 37.9648 158.919C40.6137 160.508 42.8271 162.822 44.3821 165.627C44.4031 165.657 44.4205 165.691 44.4381 165.721C44.4731 165.786 44.5115 165.857 44.5465 165.925Z" fill="#89C7D0"/>
<path d="M42.4382 133.922C42.4382 136.962 41.6016 139.934 40.0341 142.462C38.4667 144.99 36.2388 146.96 33.6322 148.124C31.0257 149.287 28.1575 149.592 25.3903 148.998C22.6232 148.405 20.0815 146.941 18.0865 144.791C16.0915 142.641 14.733 139.902 14.1825 136.92C13.6321 133.938 13.9146 130.848 14.9943 128.039C16.074 125.23 17.9023 122.829 20.2482 121.14C22.594 119.451 25.352 118.549 28.1733 118.549C30.0491 118.539 31.9081 118.93 33.6429 119.7C35.3776 120.469 36.9537 121.601 38.2801 123.03C39.6065 124.459 40.6569 126.158 41.3706 128.027C42.0843 129.897 42.4472 131.9 42.4382 133.922Z" fill="#2F2E41"/>
<path d="M39.3509 143.473C39.1876 143.915 38.9996 144.347 38.788 144.765C37.4372 147.428 35.1605 149.403 32.4585 150.256C29.7565 151.11 26.8505 150.772 24.3797 149.317C23.1553 148.597 22.0746 147.624 21.1993 146.453C20.324 145.283 19.6712 143.938 19.2784 142.496C18.8855 141.053 18.7603 139.542 18.9098 138.047C19.0593 136.553 19.4806 135.105 20.1496 133.786C20.8187 132.467 21.7223 131.303 22.809 130.36C23.8956 129.418 25.1439 128.716 26.4826 128.293C27.8213 127.871 29.224 127.737 30.6108 127.899C31.9975 128.061 33.341 128.516 34.5644 129.238C36.8341 130.576 38.5727 132.76 39.454 135.381C40.3353 138.002 40.2986 140.879 39.3509 143.473Z" fill="#A0616A"/>
<path d="M50.1929 118.436C49.9691 118.172 49.7349 117.912 49.4937 117.66C45.6087 113.511 40.715 110.629 35.3764 109.346C30.0379 108.064 24.4716 108.433 19.3191 110.41C14.1666 112.388 9.6375 115.895 6.25355 120.525C2.8696 125.156 0.768554 130.723 0.192478 136.585C-0.383598 142.446 0.588738 148.364 2.99746 153.656C5.40619 158.948 9.15329 163.399 13.807 166.496C18.4608 169.593 23.8318 171.21 29.3012 171.161C34.7706 171.112 40.1159 169.399 44.7213 166.219C46.4412 165.029 48.0407 163.649 49.4937 162.101C49.7315 161.848 49.9657 161.592 50.1929 161.328C55.2659 155.526 58.0911 147.854 58.0911 139.882C58.0911 131.91 55.2659 124.239 50.1929 118.436ZM49.4937 161.11C47.9582 162.824 46.2428 164.34 44.382 165.627C44.3786 165.631 44.375 165.631 44.3716 165.635C39.926 168.702 34.7756 170.374 29.4976 170.465C24.2196 170.555 19.0225 169.06 14.4886 166.147C14.4852 166.147 14.4852 166.143 14.4816 166.143C11.0043 163.909 8.01053 160.899 5.70119 157.315C3.39185 153.731 1.8203 149.657 1.09193 145.365C0.36356 141.073 0.495217 136.663 1.47807 132.431C2.46093 128.198 4.27225 124.241 6.79057 120.825C9.30888 117.409 12.476 114.612 16.0794 112.623C19.6828 110.634 23.6393 109.498 27.6834 109.292C31.7276 109.086 35.7659 109.814 39.5276 111.427C43.2892 113.041 46.6872 115.502 49.4937 118.647C49.7349 118.911 49.9657 119.182 50.193 119.457C54.862 125.069 57.4442 132.341 57.4442 139.878C57.4442 147.416 54.862 154.688 50.193 160.3C49.9691 160.575 49.7349 160.846 49.4937 161.11Z" fill="#3F3D56"/>
<path d="M39.7346 121.155C39.0319 119.87 38.0132 118.819 36.791 118.118C35.5688 117.417 34.1906 117.094 32.8087 117.184C31.3583 117.301 29.9782 117.877 28.6231 118.447L21.7338 121.343C19.9511 122.092 17.9987 123.01 17.2251 124.896C16.5071 126.647 17.0428 128.669 17.585 130.491L20.1626 139.154C20.5158 137.208 20.8745 135.243 21.6233 133.432C22.372 131.62 23.5561 129.95 25.1933 129.045C26.9828 128.056 29.092 128.076 31.101 128.18C33.9461 128.328 37.0396 128.718 39.0611 130.881C40.1342 132.109 40.8617 133.64 41.1591 135.296C41.4517 136.944 41.5991 138.617 41.599 140.294C42.7658 138.133 43.7486 135.862 44.5354 133.51C45.1827 131.759 45.5515 129.902 45.6264 128.019C45.6419 126.138 45.1477 124.197 43.9838 122.796C42.8199 121.394 40.9234 120.637 39.2556 121.192" fill="#2F2E41"/>
<path d="M18.0105 79.8174L17.3113 79.8086C17.3196 79.055 17.3397 78.2903 17.3712 77.5358L18.0697 77.5696C18.0387 78.3158 18.0187 79.0721 18.0105 79.8174Z" fill="#E6E6E6"/>
<path d="M18.3768 73.2667L17.6816 73.185C17.8276 71.7447 18.0189 70.292 18.25 68.8675L18.9388 68.9974C18.7102 70.4059 18.5212 71.8424 18.3768 73.2667ZM19.7551 64.7758L19.0755 64.5984C19.3919 63.1912 19.7554 61.7772 20.1556 60.3954L20.8232 60.6198C20.4273 61.9862 20.068 63.3846 19.7551 64.7758ZM22.1405 56.5426L21.4879 56.2718C21.9708 54.92 22.5014 53.5672 23.0649 52.2511L23.6998 52.5668C23.1426 53.8682 22.618 55.2059 22.1405 56.5426ZM25.4941 48.7083L24.8795 48.3492C25.5197 47.0768 26.2073 45.8094 26.9233 44.5822L27.5153 44.9833C26.8072 46.1969 26.1272 47.4501 25.4941 48.7083ZM29.754 41.4062L29.1872 40.9651C29.9739 39.7911 30.8063 38.6294 31.6612 37.5121L32.2007 37.9915C31.3552 39.0965 30.5321 40.2452 29.754 41.4062ZM34.8447 34.7529L34.3348 34.2374C35.2535 33.1821 36.2164 32.1447 37.1967 31.1536L37.6751 31.7033C36.7056 32.6834 35.7533 33.7094 34.8447 34.7529ZM40.68 28.855L40.2352 28.2737C41.2717 27.3527 42.3493 26.4562 43.438 25.6092L43.8474 26.22C42.7707 27.0578 41.7051 27.9444 40.68 28.855ZM47.1643 23.8096L46.7921 23.1716C47.9294 22.4011 49.1043 21.661 50.284 20.9716L50.6173 21.6339C49.4507 22.3157 48.2889 23.0476 47.1643 23.8096ZM54.1923 19.7031L53.8993 19.0188C55.1178 18.4129 56.3707 17.8421 57.6232 17.322L57.8746 18.0251C56.6361 18.5393 55.3972 19.1039 54.1923 19.7031ZM61.6486 16.6076L61.44 15.8883C62.7216 15.4565 64.0337 15.0643 65.3397 14.7226L65.5046 15.4548C64.2133 15.7928 62.916 16.1806 61.6486 16.6076ZM69.4216 14.5734L69.301 13.8313C70.6226 13.5816 71.9704 13.375 73.3071 13.2172L73.3833 13.9663C72.0614 14.1223 70.7285 14.3267 69.4216 14.5734Z" fill="#E6E6E6"/>
<path d="M77.4001 13.6326L77.3687 12.8798C78.0691 12.8459 78.7786 12.8242 79.4776 12.8152L79.486 13.5687C78.7946 13.5776 78.0928 13.5991 77.4001 13.6326Z" fill="#E6E6E6"/>
<path d="M20.5929 77.3952L20.0933 76.8673L17.6829 79.524L15.3998 76.7392L14.8757 77.2392L17.657 80.6302L20.5929 77.3952Z" fill="#E6E6E6"/>
<path d="M77.2383 16.3517L76.7485 15.8133L79.2138 13.2158L76.6296 10.7555L77.0936 10.1907L80.2403 13.1879L77.2383 16.3517Z" fill="#E6E6E6"/>
<path d="M181.852 21.0833C181.237 20.7342 180.616 20.3912 179.992 20.0542L180.305 19.3804C180.934 19.7195 181.558 20.0648 182.178 20.4163L181.852 21.0833Z" fill="#E6E6E6"/>
<path d="M229.368 160.162L228.721 159.876C229.247 158.493 229.753 157.081 230.225 155.681L230.882 155.938C230.407 157.348 229.898 158.769 229.368 160.162ZM232.235 151.652L231.569 151.424C231.988 150.001 232.385 148.55 232.749 147.111L233.424 147.309C233.057 148.758 232.657 150.219 232.235 151.652ZM234.446 142.917L233.765 142.749C234.074 141.293 234.359 139.811 234.612 138.345L235.3 138.483C235.045 139.959 234.758 141.451 234.446 142.917ZM235.983 134.015L235.291 133.908C235.488 132.43 235.659 130.928 235.799 129.443L236.494 129.52C236.353 131.015 236.181 132.527 235.983 134.015ZM236.834 125.006L236.135 124.96C236.219 123.471 236.274 121.959 236.301 120.466L237 120.48C236.973 121.984 236.917 123.506 236.834 125.006ZM236.993 115.951L236.294 115.968C236.281 115.313 236.262 114.658 236.238 114.003C236.207 113.164 236.166 112.313 236.116 111.474L236.814 111.426C236.864 112.271 236.905 113.128 236.936 113.973C236.961 114.632 236.98 115.291 236.993 115.951ZM235.768 106.993C235.624 105.509 235.45 104.007 235.25 102.532L235.942 102.423C236.143 103.909 236.319 105.42 236.464 106.915L235.768 106.993ZM234.563 98.0955C234.308 96.6297 234.021 95.1485 233.709 93.6932L234.391 93.5239C234.704 94.9892 234.993 96.4805 235.251 97.9565L234.563 98.0955ZM232.689 89.3316C232.324 87.8908 231.925 86.4396 231.506 85.0179L232.172 84.7896C232.594 86.2209 232.995 87.6821 233.364 89.1328L232.689 89.3316ZM230.16 80.7597C229.687 79.3563 229.18 77.9444 228.654 76.5631L229.301 76.2771C229.831 77.6679 230.341 79.0894 230.817 80.5022L230.16 80.7597ZM226.992 72.4358C226.414 71.0782 225.802 69.7152 225.174 68.3846L225.797 68.0429C226.43 69.3825 227.045 70.7547 227.627 72.1216L226.992 72.4358ZM223.204 64.4164C222.526 63.1145 221.813 61.8096 221.086 60.5382L221.681 60.1428C222.413 61.4228 223.131 62.7367 223.814 64.0476L223.204 64.4164ZM218.821 56.7563C218.046 55.5176 217.236 54.2798 216.415 53.0772L216.978 52.6305C217.805 53.8413 218.62 55.0878 219.401 56.335L218.821 56.7563ZM213.87 49.5071C213.002 48.3404 212.101 47.1783 211.19 46.053L211.718 45.5578C212.634 46.691 213.542 47.8611 214.416 49.0358L213.87 49.5071ZM208.381 42.7204C207.427 41.6344 206.439 40.556 205.445 39.515L205.933 38.9747C206.933 40.0229 207.928 41.1088 208.888 42.2021L208.381 42.7204ZM202.389 36.4424C201.355 35.4453 200.288 34.458 199.217 33.5082L199.662 32.9263C200.74 33.8829 201.815 34.877 202.856 35.881L202.389 36.4424ZM195.935 30.7171C194.832 29.8183 193.695 28.9304 192.555 28.0781L192.953 27.4589C194.102 28.317 195.247 29.2111 196.357 30.116L195.935 30.7171ZM189.077 25.5911C187.91 24.7928 186.709 24.0082 185.508 23.2585L185.858 22.6063C187.068 23.361 188.277 24.1511 189.452 24.9548L189.077 25.5911Z" fill="#E6E6E6"/>
<path d="M226.798 166.374L226.168 166.047C226.472 165.369 226.769 164.689 227.058 164.008L227.694 164.321C227.402 165.007 227.104 165.692 226.798 166.374Z" fill="#E6E6E6"/>
<path d="M180.867 23.6213L181.527 23.3707L180.378 19.8678L183.704 18.8882L183.519 18.161L179.468 19.3546L180.867 23.6213Z" fill="#E6E6E6"/>
<path d="M224.84 162.646L225.505 162.41L226.58 165.94L229.769 164.526L230.035 165.224L226.15 166.945L224.84 162.646Z" fill="#E6E6E6"/>
</g>
<defs>
<clipPath id="clip0_0_1">
<rect width="237" height="235" fill="white"/>
</clipPath>
</defs>
</svg>
